<svg width="1499" height="942" viewBox="0 0 1499 942" fill="none" xmlns="http://www.w3.org/2000/svg">
<rect opacity="0.8" x="-9" y="-52" width="1523" height="828" fill="url(#paint0_linear_2003_232)"/>
<g opacity="0.25">
<g filter="url(#filter0_f_2003_232)">
<ellipse cx="539.5" cy="347" rx="337.5" ry="157" fill="#7000FF"/>
</g>
<g filter="url(#filter1_f_2003_232)">
<ellipse cx="914.5" cy="347" rx="337.5" ry="157" fill="#FF00C7"/>
</g>
</g>
<g opacity="0.8" filter="url(#filter2_f_2003_232)">
<path fill-rule="evenodd" clip-rule="evenodd" d="M1216.01 541.084C1408.26 541.084 1504.49 443.019 1504.49 292.18C1504.49 182.406 1453.52 68.1015 1351.67 14H1064.61C1047.82 22.5014 1032.71 32.5449 1019.25 43.9489L1019.25 468.648C1065.19 513.062 1130.37 541.084 1216.01 541.084Z" fill="#0ABF9D"/>
</g>
<path fill-rule="evenodd" clip-rule="evenodd" d="M1308.33 157.685C1308.33 157.892 1308.27 158.095 1308.16 158.267C1308.05 158.439 1307.9 158.573 1307.72 158.652C1307.54 158.731 1307.35 158.752 1307.16 158.712C1306.97 158.671 1306.79 158.572 1306.66 158.425C1306.52 158.279 1306.43 158.093 1306.39 157.89C1306.35 157.687 1306.37 157.476 1306.45 157.285C1306.52 157.094 1306.65 156.93 1306.81 156.815C1306.97 156.7 1307.16 156.639 1307.35 156.639C1307.61 156.639 1307.86 156.749 1308.04 156.946C1308.22 157.142 1308.33 157.408 1308.33 157.685V157.685Z" fill="#68B7E7"/>
<path fill-rule="evenodd" clip-rule="evenodd" d="M1289.36 270.238C1289.36 270.445 1289.3 270.647 1289.19 270.819C1289.09 270.991 1288.93 271.125 1288.76 271.204C1288.58 271.284 1288.38 271.304 1288.19 271.264C1288 271.224 1287.83 271.124 1287.69 270.978C1287.55 270.831 1287.46 270.645 1287.42 270.442C1287.39 270.239 1287.4 270.028 1287.48 269.837C1287.55 269.646 1287.68 269.483 1287.84 269.368C1288 269.253 1288.19 269.191 1288.38 269.191C1288.51 269.191 1288.64 269.218 1288.76 269.271C1288.87 269.324 1288.98 269.401 1289.07 269.498C1289.16 269.595 1289.24 269.71 1289.28 269.837C1289.33 269.964 1289.36 270.1 1289.36 270.238V270.238Z" fill="#68B7E7"/>
<path fill-rule="evenodd" clip-rule="evenodd" d="M1429.42 326.142C1429.42 326.349 1429.37 326.551 1429.26 326.723C1429.15 326.895 1429 327.029 1428.82 327.108C1428.64 327.187 1428.45 327.208 1428.26 327.168C1428.07 327.127 1427.89 327.027 1427.76 326.881C1427.62 326.735 1427.53 326.548 1427.49 326.345C1427.45 326.143 1427.47 325.932 1427.54 325.741C1427.62 325.55 1427.74 325.386 1427.9 325.272C1428.07 325.157 1428.25 325.095 1428.45 325.095C1428.58 325.095 1428.7 325.122 1428.82 325.175C1428.94 325.227 1429.05 325.305 1429.14 325.402C1429.23 325.499 1429.3 325.614 1429.35 325.741C1429.4 325.868 1429.42 326.004 1429.42 326.142V326.142Z" fill="#68B7E7"/>
<path fill-rule="evenodd" clip-rule="evenodd" d="M1457.08 454.371C1457.08 454.578 1457.02 454.781 1456.91 454.953C1456.81 455.125 1456.65 455.259 1456.48 455.338C1456.3 455.417 1456.1 455.438 1455.91 455.398C1455.72 455.357 1455.55 455.258 1455.41 455.111C1455.27 454.965 1455.18 454.779 1455.14 454.576C1455.11 454.373 1455.12 454.162 1455.2 453.971C1455.27 453.78 1455.4 453.616 1455.56 453.501C1455.72 453.387 1455.91 453.325 1456.1 453.325C1456.36 453.325 1456.61 453.436 1456.79 453.632C1456.98 453.828 1457.08 454.094 1457.08 454.371V454.371Z" fill="#68B7E7"/>
<path fill-rule="evenodd" clip-rule="evenodd" d="M1367.9 283.301C1367.9 283.508 1367.84 283.71 1367.73 283.882C1367.63 284.054 1367.47 284.188 1367.3 284.267C1367.12 284.346 1366.92 284.367 1366.73 284.327C1366.54 284.286 1366.37 284.187 1366.23 284.04C1366.09 283.894 1366 283.708 1365.96 283.505C1365.93 283.302 1365.94 283.091 1366.02 282.9C1366.09 282.709 1366.22 282.546 1366.38 282.431C1366.54 282.316 1366.73 282.254 1366.92 282.254C1367.05 282.254 1367.18 282.281 1367.3 282.334C1367.41 282.387 1367.52 282.464 1367.61 282.561C1367.7 282.658 1367.78 282.773 1367.82 282.9C1367.87 283.027 1367.9 283.163 1367.9 283.301V283.301Z" fill="#406FBB"/>
<path fill-rule="evenodd" clip-rule="evenodd" d="M1321.69 259.449C1321.69 259.656 1321.64 259.858 1321.53 260.03C1321.42 260.202 1321.27 260.337 1321.09 260.416C1320.91 260.495 1320.72 260.516 1320.53 260.475C1320.34 260.435 1320.16 260.335 1320.02 260.189C1319.89 260.043 1319.8 259.856 1319.76 259.653C1319.72 259.45 1319.74 259.24 1319.81 259.049C1319.89 258.858 1320.01 258.694 1320.17 258.579C1320.33 258.464 1320.52 258.403 1320.72 258.403C1320.98 258.403 1321.22 258.513 1321.41 258.709C1321.59 258.905 1321.69 259.172 1321.69 259.449V259.449Z" fill="#406FBB"/>
<path fill-rule="evenodd" clip-rule="evenodd" d="M1264.3 211.646C1264.3 211.853 1264.24 212.055 1264.14 212.227C1264.03 212.399 1263.88 212.533 1263.7 212.613C1263.52 212.692 1263.32 212.712 1263.13 212.672C1262.94 212.632 1262.77 212.532 1262.63 212.386C1262.5 212.24 1262.4 212.053 1262.36 211.85C1262.33 211.647 1262.35 211.437 1262.42 211.246C1262.49 211.054 1262.62 210.891 1262.78 210.776C1262.94 210.661 1263.13 210.6 1263.32 210.6C1263.45 210.6 1263.58 210.627 1263.7 210.679C1263.82 210.732 1263.92 210.809 1264.01 210.906C1264.11 211.003 1264.18 211.118 1264.23 211.245C1264.28 211.372 1264.3 211.508 1264.3 211.646V211.646Z" fill="#365CBB"/>
<path d="M1204.23 134.439C1204.77 134.439 1205.2 133.971 1205.2 133.393C1205.2 132.815 1204.77 132.347 1204.23 132.347C1203.69 132.347 1203.25 132.815 1203.25 133.393C1203.25 133.971 1203.69 134.439 1204.23 134.439Z" fill="#365CBB"/>
<path fill-rule="evenodd" clip-rule="evenodd" d="M1320.72 97.6077C1320.72 97.8852 1320.61 98.1514 1320.43 98.3476C1320.25 98.5438 1320 98.6541 1319.74 98.6542C1319.61 98.6542 1319.48 98.6271 1319.36 98.5745C1319.25 98.5219 1319.14 98.4448 1319.05 98.3476C1318.96 98.2505 1318.88 98.1351 1318.84 98.0082C1318.79 97.8812 1318.76 97.7451 1318.76 97.6077C1318.76 97.4703 1318.79 97.3343 1318.84 97.2073C1318.88 97.0804 1318.96 96.9651 1319.05 96.8679C1319.14 96.7707 1319.25 96.6937 1319.36 96.6411C1319.48 96.5885 1319.61 96.5615 1319.74 96.5615C1319.87 96.5615 1319.99 96.5886 1320.11 96.6412C1320.23 96.6937 1320.34 96.7708 1320.43 96.8679C1320.52 96.9651 1320.59 97.0804 1320.64 97.2074C1320.69 97.3343 1320.72 97.4703 1320.72 97.6077V97.6077Z" fill="#365CBB"/>
<path fill-rule="evenodd" clip-rule="evenodd" d="M1382.83 282.257C1382.83 282.464 1382.77 282.667 1382.66 282.839C1382.56 283.011 1382.4 283.145 1382.22 283.224C1382.05 283.303 1381.85 283.324 1381.66 283.283C1381.47 283.243 1381.3 283.143 1381.16 282.997C1381.02 282.851 1380.93 282.664 1380.89 282.461C1380.85 282.258 1380.87 282.048 1380.95 281.857C1381.02 281.666 1381.15 281.502 1381.31 281.387C1381.47 281.272 1381.66 281.211 1381.85 281.211C1381.98 281.211 1382.11 281.238 1382.22 281.291C1382.34 281.343 1382.45 281.42 1382.54 281.517C1382.63 281.615 1382.7 281.73 1382.75 281.857C1382.8 281.984 1382.83 282.12 1382.83 282.257Z" fill="#365CBB"/>
<path d="M1389.94 89.9325C1390.48 89.9325 1390.92 89.464 1390.92 88.8862C1390.92 88.3083 1390.48 87.8398 1389.94 87.8398C1389.4 87.8398 1388.96 88.3083 1388.96 88.8862C1388.96 89.464 1389.4 89.9325 1389.94 89.9325Z" fill="#365CBB"/>
<path fill-rule="evenodd" clip-rule="evenodd" d="M1194.22 525.631C1194.22 525.838 1194.16 526.04 1194.05 526.212C1193.94 526.384 1193.79 526.518 1193.61 526.597C1193.43 526.677 1193.24 526.697 1193.05 526.657C1192.86 526.617 1192.68 526.517 1192.55 526.371C1192.41 526.224 1192.32 526.038 1192.28 525.835C1192.24 525.632 1192.26 525.421 1192.34 525.23C1192.41 525.039 1192.53 524.876 1192.7 524.761C1192.86 524.646 1193.05 524.584 1193.24 524.584C1193.37 524.584 1193.49 524.612 1193.61 524.664C1193.73 524.717 1193.84 524.794 1193.93 524.891C1194.02 524.988 1194.09 525.103 1194.14 525.23C1194.19 525.357 1194.22 525.493 1194.22 525.631Z" fill="#90FFFF"/>
<path fill-rule="evenodd" clip-rule="evenodd" d="M1425.93 111.781C1425.93 112.058 1425.83 112.324 1425.64 112.52C1425.46 112.717 1425.21 112.827 1424.95 112.827C1424.69 112.827 1424.45 112.717 1424.26 112.52C1424.08 112.324 1423.98 112.058 1423.98 111.781C1423.98 111.503 1424.08 111.237 1424.26 111.041C1424.45 110.845 1424.69 110.734 1424.95 110.734C1425.21 110.734 1425.46 110.845 1425.64 111.041C1425.83 111.237 1425.93 111.503 1425.93 111.781V111.781Z" fill="#406FBB"/>
<path fill-rule="evenodd" clip-rule="evenodd" d="M1417.51 250.517C1417.51 250.724 1417.45 250.926 1417.34 251.098C1417.23 251.27 1417.08 251.405 1416.9 251.484C1416.72 251.563 1416.53 251.584 1416.34 251.543C1416.15 251.503 1415.98 251.403 1415.84 251.257C1415.7 251.111 1415.61 250.924 1415.57 250.721C1415.53 250.518 1415.55 250.308 1415.63 250.117C1415.7 249.925 1415.83 249.762 1415.99 249.647C1416.15 249.532 1416.34 249.471 1416.53 249.471C1416.66 249.471 1416.79 249.498 1416.9 249.55C1417.02 249.603 1417.13 249.68 1417.22 249.777C1417.31 249.874 1417.38 249.99 1417.43 250.117C1417.48 250.244 1417.51 250.38 1417.51 250.517V250.517Z" fill="#406FBB"/>
<path fill-rule="evenodd" clip-rule="evenodd" d="M1167.93 200.356C1167.93 200.563 1167.87 200.766 1167.77 200.938C1167.66 201.11 1167.51 201.244 1167.33 201.323C1167.15 201.402 1166.95 201.423 1166.76 201.383C1166.57 201.342 1166.4 201.243 1166.26 201.096C1166.13 200.95 1166.03 200.763 1165.99 200.56C1165.96 200.358 1165.98 200.147 1166.05 199.956C1166.12 199.765 1166.25 199.601 1166.41 199.486C1166.57 199.371 1166.76 199.31 1166.95 199.31C1167.21 199.31 1167.46 199.42 1167.64 199.616C1167.83 199.813 1167.93 200.079 1167.93 200.356V200.356Z" fill="#406FBB"/>
<path fill-rule="evenodd" clip-rule="evenodd" d="M1219.54 255.095C1219.54 255.302 1219.48 255.504 1219.37 255.676C1219.27 255.848 1219.11 255.982 1218.93 256.061C1218.76 256.14 1218.56 256.161 1218.37 256.121C1218.18 256.08 1218.01 255.981 1217.87 255.834C1217.73 255.688 1217.64 255.502 1217.6 255.299C1217.56 255.096 1217.58 254.885 1217.66 254.694C1217.73 254.503 1217.86 254.34 1218.02 254.225C1218.18 254.11 1218.37 254.048 1218.56 254.048C1218.69 254.048 1218.82 254.075 1218.93 254.128C1219.05 254.181 1219.16 254.258 1219.25 254.355C1219.34 254.452 1219.41 254.567 1219.46 254.694C1219.51 254.821 1219.54 254.957 1219.54 255.095V255.095Z" fill="#406FBB"/>
<path fill-rule="evenodd" clip-rule="evenodd" d="M1309.45 538.606C1309.45 538.813 1309.39 539.015 1309.28 539.187C1309.17 539.36 1309.02 539.494 1308.84 539.573C1308.66 539.652 1308.47 539.673 1308.28 539.632C1308.09 539.592 1307.91 539.492 1307.78 539.346C1307.64 539.2 1307.55 539.013 1307.51 538.81C1307.47 538.607 1307.49 538.397 1307.57 538.206C1307.64 538.015 1307.77 537.851 1307.93 537.736C1308.09 537.621 1308.28 537.56 1308.47 537.56C1308.73 537.56 1308.98 537.67 1309.16 537.867C1309.34 538.063 1309.45 538.329 1309.45 538.606V538.606Z" fill="#406FBB"/>
<path fill-rule="evenodd" clip-rule="evenodd" d="M1232.34 126.033C1232.34 126.24 1232.28 126.442 1232.17 126.614C1232.07 126.786 1231.91 126.921 1231.74 127C1231.56 127.079 1231.36 127.1 1231.17 127.059C1230.98 127.019 1230.81 126.919 1230.67 126.773C1230.53 126.627 1230.44 126.44 1230.4 126.237C1230.37 126.034 1230.38 125.824 1230.46 125.633C1230.53 125.442 1230.66 125.278 1230.82 125.163C1230.98 125.048 1231.17 124.987 1231.36 124.987C1231.62 124.987 1231.87 125.097 1232.05 125.293C1232.24 125.489 1232.34 125.756 1232.34 126.033V126.033Z" fill="#406FBB"/>
<path fill-rule="evenodd" clip-rule="evenodd" d="M1422.24 392.757C1422.24 392.964 1422.18 393.166 1422.08 393.338C1421.97 393.51 1421.82 393.645 1421.64 393.724C1421.46 393.803 1421.26 393.824 1421.07 393.783C1420.88 393.743 1420.71 393.643 1420.57 393.497C1420.44 393.351 1420.34 393.164 1420.3 392.961C1420.27 392.758 1420.29 392.548 1420.36 392.357C1420.43 392.166 1420.56 392.002 1420.72 391.887C1420.88 391.772 1421.07 391.711 1421.26 391.711C1421.52 391.711 1421.77 391.821 1421.95 392.017C1422.14 392.214 1422.24 392.48 1422.24 392.757V392.757Z" fill="#406FBB"/>
<path fill-rule="evenodd" clip-rule="evenodd" d="M1111.23 248.487C1111.23 248.694 1111.17 248.896 1111.06 249.068C1110.96 249.24 1110.8 249.375 1110.63 249.454C1110.45 249.533 1110.25 249.554 1110.06 249.513C1109.87 249.473 1109.7 249.373 1109.56 249.227C1109.42 249.081 1109.33 248.894 1109.29 248.691C1109.26 248.488 1109.28 248.278 1109.35 248.087C1109.42 247.896 1109.55 247.732 1109.71 247.617C1109.87 247.502 1110.06 247.441 1110.25 247.441C1110.51 247.441 1110.76 247.551 1110.94 247.747C1111.13 247.944 1111.23 248.21 1111.23 248.487Z" fill="#406FBB"/>
<path fill-rule="evenodd" clip-rule="evenodd" d="M1133.4 99.7049C1133.4 99.9824 1133.29 100.248 1133.11 100.445C1132.93 100.641 1132.68 100.751 1132.42 100.751C1132.16 100.751 1131.91 100.641 1131.73 100.445C1131.54 100.249 1131.44 99.9824 1131.44 99.7049C1131.44 99.5675 1131.47 99.4314 1131.52 99.3045C1131.57 99.1775 1131.64 99.0622 1131.73 98.9651C1131.82 98.8679 1131.93 98.7908 1132.05 98.7383C1132.16 98.6857 1132.29 98.6587 1132.42 98.6587C1132.55 98.6587 1132.67 98.6857 1132.79 98.7383C1132.91 98.7909 1133.02 98.8679 1133.11 98.9651C1133.2 99.0622 1133.27 99.1776 1133.32 99.3045C1133.37 99.4315 1133.4 99.5675 1133.4 99.7049V99.7049Z" fill="#406FBB"/>
<path fill-rule="evenodd" clip-rule="evenodd" d="M1341.62 346.563C1341.62 346.77 1341.56 346.972 1341.45 347.144C1341.34 347.316 1341.19 347.45 1341.01 347.53C1340.83 347.609 1340.64 347.63 1340.45 347.589C1340.26 347.549 1340.08 347.449 1339.95 347.303C1339.81 347.156 1339.72 346.97 1339.68 346.767C1339.64 346.564 1339.66 346.354 1339.74 346.162C1339.81 345.971 1339.93 345.808 1340.1 345.693C1340.26 345.578 1340.45 345.517 1340.64 345.517C1340.9 345.517 1341.15 345.627 1341.33 345.823C1341.51 346.019 1341.62 346.285 1341.62 346.563V346.563Z" fill="#406FBB"/>
<path fill-rule="evenodd" clip-rule="evenodd" d="M1265.28 173.49C1265.28 173.696 1265.22 173.899 1265.11 174.071C1265.01 174.243 1264.85 174.377 1264.68 174.456C1264.5 174.535 1264.3 174.556 1264.11 174.516C1263.92 174.475 1263.75 174.376 1263.61 174.229C1263.47 174.083 1263.38 173.897 1263.34 173.694C1263.31 173.491 1263.32 173.28 1263.4 173.089C1263.47 172.898 1263.6 172.735 1263.76 172.62C1263.92 172.505 1264.11 172.443 1264.3 172.443C1264.56 172.443 1264.81 172.554 1264.99 172.75C1265.18 172.946 1265.28 173.212 1265.28 173.49V173.49Z" fill="#406FBB"/>
<path fill-rule="evenodd" clip-rule="evenodd" d="M1493.75 423.067C1493.75 423.274 1493.69 423.476 1493.58 423.649C1493.47 423.821 1493.32 423.955 1493.14 424.034C1492.96 424.113 1492.77 424.134 1492.58 424.094C1492.39 424.053 1492.21 423.954 1492.08 423.807C1491.94 423.661 1491.85 423.474 1491.81 423.271C1491.77 423.068 1491.79 422.858 1491.87 422.667C1491.94 422.476 1492.06 422.312 1492.23 422.197C1492.39 422.082 1492.57 422.021 1492.77 422.021C1493.03 422.021 1493.28 422.131 1493.46 422.327C1493.64 422.524 1493.75 422.79 1493.75 423.067V423.067Z" fill="#406FBB"/>
<path fill-rule="evenodd" clip-rule="evenodd" d="M1437.27 177.688C1437.27 177.895 1437.22 178.097 1437.11 178.269C1437 178.441 1436.85 178.575 1436.67 178.654C1436.49 178.733 1436.3 178.754 1436.11 178.714C1435.92 178.673 1435.74 178.574 1435.61 178.427C1435.47 178.281 1435.38 178.095 1435.34 177.892C1435.3 177.689 1435.32 177.478 1435.39 177.287C1435.47 177.096 1435.59 176.932 1435.75 176.817C1435.91 176.703 1436.1 176.641 1436.3 176.641C1436.42 176.641 1436.55 176.668 1436.67 176.721C1436.79 176.773 1436.9 176.85 1436.99 176.948C1437.08 177.045 1437.15 177.16 1437.2 177.287C1437.25 177.414 1437.27 177.55 1437.27 177.688V177.688Z" fill="#68B7E7"/>
<path fill-rule="evenodd" clip-rule="evenodd" d="M1485.19 186.381C1485.19 186.588 1485.13 186.79 1485.03 186.962C1484.92 187.134 1484.77 187.268 1484.59 187.347C1484.41 187.427 1484.21 187.447 1484.02 187.407C1483.83 187.367 1483.66 187.267 1483.52 187.121C1483.39 186.974 1483.29 186.788 1483.25 186.585C1483.22 186.382 1483.24 186.172 1483.31 185.98C1483.38 185.789 1483.51 185.626 1483.67 185.511C1483.83 185.396 1484.02 185.334 1484.21 185.334C1484.34 185.334 1484.47 185.362 1484.59 185.414C1484.71 185.467 1484.81 185.544 1484.9 185.641C1485 185.738 1485.07 185.853 1485.12 185.98C1485.17 186.107 1485.19 186.243 1485.19 186.381V186.381Z" fill="#406FBB"/>
<path fill-rule="evenodd" clip-rule="evenodd" d="M1372.68 457.59C1372.68 457.797 1372.62 457.999 1372.52 458.171C1372.41 458.343 1372.26 458.477 1372.08 458.556C1371.9 458.635 1371.7 458.656 1371.51 458.616C1371.32 458.575 1371.15 458.476 1371.01 458.329C1370.88 458.183 1370.78 457.997 1370.74 457.794C1370.71 457.591 1370.73 457.38 1370.8 457.189C1370.87 456.998 1371 456.835 1371.16 456.72C1371.32 456.605 1371.51 456.543 1371.7 456.543C1371.83 456.543 1371.96 456.57 1372.08 456.623C1372.2 456.676 1372.3 456.753 1372.39 456.85C1372.48 456.947 1372.56 457.062 1372.61 457.189C1372.65 457.316 1372.68 457.452 1372.68 457.59V457.59Z" fill="#406FBB"/>
<path fill-rule="evenodd" clip-rule="evenodd" d="M1189.64 217.676C1189.64 217.883 1189.58 218.085 1189.47 218.257C1189.37 218.43 1189.21 218.564 1189.04 218.643C1188.86 218.722 1188.66 218.743 1188.47 218.702C1188.28 218.662 1188.11 218.562 1187.97 218.416C1187.83 218.27 1187.74 218.083 1187.7 217.88C1187.67 217.677 1187.69 217.467 1187.76 217.276C1187.83 217.085 1187.96 216.921 1188.12 216.806C1188.28 216.691 1188.47 216.63 1188.66 216.63C1188.92 216.63 1189.17 216.74 1189.35 216.936C1189.54 217.133 1189.64 217.399 1189.64 217.676V217.676Z" fill="#90FFFF"/>
<path d="M1279.91 231.35C1280.45 231.35 1280.89 230.882 1280.89 230.304C1280.89 229.726 1280.45 229.258 1279.91 229.258C1279.37 229.258 1278.93 229.726 1278.93 230.304C1278.93 230.882 1279.37 231.35 1279.91 231.35Z" fill="#90FFFF"/>
<path fill-rule="evenodd" clip-rule="evenodd" d="M1271.09 98.6548C1271.09 98.9323 1270.98 99.1984 1270.8 99.3946C1270.62 99.5908 1270.37 99.7011 1270.11 99.701C1269.85 99.701 1269.6 99.5908 1269.42 99.3946C1269.24 99.1984 1269.13 98.9323 1269.13 98.6548C1269.13 98.5174 1269.16 98.3814 1269.21 98.2544C1269.26 98.1274 1269.33 98.0121 1269.42 97.9149C1269.51 97.8177 1269.62 97.7407 1269.74 97.6881C1269.85 97.6355 1269.98 97.6084 1270.11 97.6084C1270.37 97.6084 1270.62 97.7187 1270.8 97.9149C1270.98 98.1111 1271.09 98.3773 1271.09 98.6548V98.6548Z" fill="#90FFFF"/>
<path fill-rule="evenodd" clip-rule="evenodd" d="M1106.19 177.656C1106.19 177.863 1106.13 178.065 1106.03 178.237C1105.92 178.409 1105.77 178.543 1105.59 178.622C1105.41 178.701 1105.21 178.722 1105.02 178.682C1104.83 178.641 1104.66 178.542 1104.52 178.395C1104.39 178.249 1104.29 178.063 1104.26 177.86C1104.22 177.657 1104.24 177.446 1104.31 177.255C1104.39 177.064 1104.51 176.901 1104.67 176.786C1104.83 176.671 1105.02 176.609 1105.21 176.609C1105.34 176.609 1105.47 176.636 1105.59 176.689C1105.71 176.742 1105.81 176.819 1105.91 176.916C1106 177.013 1106.07 177.128 1106.12 177.255C1106.17 177.382 1106.19 177.518 1106.19 177.656Z" fill="#90FFFF"/>
<path fill-rule="evenodd" clip-rule="evenodd" d="M1339.48 382.253C1339.48 382.46 1339.42 382.662 1339.31 382.834C1339.21 383.007 1339.05 383.141 1338.87 383.22C1338.7 383.299 1338.5 383.32 1338.31 383.279C1338.12 383.239 1337.95 383.139 1337.81 382.993C1337.67 382.847 1337.58 382.66 1337.54 382.457C1337.5 382.254 1337.52 382.044 1337.6 381.853C1337.67 381.662 1337.8 381.498 1337.96 381.383C1338.12 381.268 1338.31 381.207 1338.5 381.207C1338.76 381.207 1339.01 381.317 1339.19 381.513C1339.38 381.71 1339.48 381.976 1339.48 382.253V382.253Z" fill="#B7FFFF"/>
<path fill-rule="evenodd" clip-rule="evenodd" d="M1299.04 136.655C1299.04 136.862 1298.98 137.064 1298.88 137.236C1298.77 137.408 1298.62 137.542 1298.44 137.621C1298.26 137.701 1298.06 137.721 1297.87 137.681C1297.68 137.641 1297.51 137.541 1297.37 137.395C1297.23 137.248 1297.14 137.062 1297.1 136.859C1297.07 136.656 1297.09 136.446 1297.16 136.254C1297.23 136.063 1297.36 135.9 1297.52 135.785C1297.68 135.67 1297.87 135.608 1298.06 135.608C1298.19 135.608 1298.32 135.635 1298.44 135.688C1298.56 135.741 1298.66 135.818 1298.75 135.915C1298.84 136.012 1298.92 136.127 1298.97 136.254C1299.01 136.381 1299.04 136.517 1299.04 136.655V136.655Z" fill="#90FFFF"/>
<path fill-rule="evenodd" clip-rule="evenodd" d="M1484.21 279.771C1484.21 279.978 1484.16 280.18 1484.05 280.352C1483.94 280.524 1483.79 280.658 1483.61 280.737C1483.43 280.817 1483.24 280.837 1483.05 280.797C1482.86 280.757 1482.68 280.657 1482.55 280.511C1482.41 280.364 1482.32 280.178 1482.28 279.975C1482.24 279.772 1482.26 279.562 1482.33 279.37C1482.41 279.179 1482.53 279.016 1482.69 278.901C1482.85 278.786 1483.04 278.725 1483.24 278.725C1483.5 278.725 1483.74 278.835 1483.93 279.031C1484.11 279.227 1484.21 279.493 1484.21 279.771V279.771Z" fill="#90FFFF"/>
<path fill-rule="evenodd" clip-rule="evenodd" d="M1285.88 385.69C1285.88 385.897 1285.82 386.099 1285.71 386.272C1285.6 386.444 1285.45 386.578 1285.27 386.657C1285.09 386.736 1284.9 386.757 1284.71 386.716C1284.52 386.676 1284.35 386.576 1284.21 386.43C1284.07 386.284 1283.98 386.097 1283.94 385.894C1283.9 385.691 1283.92 385.481 1284 385.29C1284.07 385.099 1284.2 384.935 1284.36 384.82C1284.52 384.705 1284.71 384.644 1284.9 384.644C1285.16 384.644 1285.41 384.754 1285.59 384.95C1285.77 385.147 1285.88 385.413 1285.88 385.69V385.69Z" fill="#90FFFF"/>
<path fill-rule="evenodd" clip-rule="evenodd" d="M1150.99 394.817C1150.99 395.024 1150.93 395.226 1150.82 395.398C1150.72 395.57 1150.56 395.704 1150.39 395.783C1150.21 395.863 1150.01 395.883 1149.82 395.843C1149.63 395.803 1149.46 395.703 1149.32 395.557C1149.18 395.41 1149.09 395.224 1149.05 395.021C1149.02 394.818 1149.03 394.608 1149.11 394.416C1149.18 394.225 1149.31 394.062 1149.47 393.947C1149.63 393.832 1149.82 393.771 1150.01 393.771C1150.14 393.77 1150.27 393.798 1150.39 393.85C1150.5 393.903 1150.61 393.98 1150.7 394.077C1150.79 394.174 1150.87 394.289 1150.91 394.416C1150.96 394.543 1150.99 394.68 1150.99 394.817Z" fill="#90FFFF"/>
<path fill-rule="evenodd" clip-rule="evenodd" d="M1483.24 82.8162C1483.24 82.9536 1483.21 83.0897 1483.16 83.2166C1483.11 83.3436 1483.04 83.459 1482.95 83.5561C1482.86 83.6533 1482.75 83.7304 1482.63 83.783C1482.51 83.8356 1482.39 83.8626 1482.26 83.8626C1482.13 83.8627 1482 83.8356 1481.89 83.783C1481.77 83.7304 1481.66 83.6534 1481.57 83.5562C1481.48 83.459 1481.41 83.3437 1481.36 83.2167C1481.31 83.0897 1481.28 82.9536 1481.28 82.8162C1481.28 82.6788 1481.31 82.5428 1481.36 82.4158C1481.41 82.2889 1481.48 82.1735 1481.57 82.0764C1481.66 81.9792 1481.77 81.9022 1481.89 81.8496C1482 81.797 1482.13 81.77 1482.26 81.77C1482.52 81.77 1482.77 81.8802 1482.95 82.0764C1483.13 82.2726 1483.24 82.5388 1483.24 82.8162V82.8162Z" fill="#90FFFF"/>
<path fill-rule="evenodd" clip-rule="evenodd" d="M1416.97 157.651C1416.97 157.858 1416.91 158.06 1416.8 158.232C1416.69 158.404 1416.54 158.538 1416.36 158.617C1416.18 158.697 1415.99 158.717 1415.8 158.677C1415.61 158.637 1415.43 158.537 1415.3 158.391C1415.16 158.244 1415.07 158.058 1415.03 157.855C1414.99 157.652 1415.01 157.442 1415.09 157.25C1415.16 157.059 1415.29 156.896 1415.45 156.781C1415.61 156.666 1415.8 156.604 1415.99 156.604C1416.25 156.605 1416.5 156.715 1416.68 156.911C1416.86 157.107 1416.97 157.373 1416.97 157.651V157.651Z" fill="#90FFFF"/>
<path fill-rule="evenodd" clip-rule="evenodd" d="M1383.81 217.676C1383.81 217.883 1383.75 218.085 1383.64 218.257C1383.53 218.429 1383.38 218.564 1383.2 218.643C1383.02 218.722 1382.83 218.743 1382.64 218.702C1382.45 218.662 1382.27 218.562 1382.14 218.416C1382 218.27 1381.91 218.083 1381.87 217.88C1381.83 217.677 1381.85 217.467 1381.92 217.276C1382 217.085 1382.12 216.921 1382.28 216.806C1382.45 216.691 1382.63 216.63 1382.83 216.63C1382.96 216.63 1383.08 216.657 1383.2 216.709C1383.32 216.762 1383.43 216.839 1383.52 216.936C1383.61 217.033 1383.68 217.149 1383.73 217.276C1383.78 217.403 1383.81 217.539 1383.81 217.676V217.676Z" fill="#90FFFF"/>
<path fill-rule="evenodd" clip-rule="evenodd" d="M1282.83 218.01C1282.83 218.217 1282.77 218.419 1282.67 218.591C1282.56 218.763 1282.41 218.897 1282.23 218.976C1282.05 219.056 1281.85 219.076 1281.66 219.036C1281.47 218.996 1281.3 218.896 1281.16 218.75C1281.03 218.603 1280.93 218.417 1280.89 218.214C1280.86 218.011 1280.88 217.8 1280.95 217.609C1281.02 217.418 1281.15 217.255 1281.31 217.14C1281.47 217.025 1281.66 216.963 1281.85 216.963C1281.98 216.963 1282.11 216.99 1282.23 217.043C1282.35 217.096 1282.45 217.173 1282.54 217.27C1282.63 217.367 1282.71 217.482 1282.76 217.609C1282.8 217.736 1282.83 217.872 1282.83 218.01V218.01Z" fill="#90FFFF"/>
<path fill-rule="evenodd" clip-rule="evenodd" d="M1314.26 400.515C1314.26 400.722 1314.2 400.925 1314.09 401.097C1313.99 401.269 1313.83 401.403 1313.66 401.482C1313.48 401.561 1313.28 401.582 1313.09 401.542C1312.9 401.501 1312.73 401.402 1312.59 401.255C1312.45 401.109 1312.36 400.923 1312.32 400.72C1312.29 400.517 1312.3 400.306 1312.38 400.115C1312.45 399.924 1312.58 399.76 1312.74 399.645C1312.9 399.531 1313.09 399.469 1313.28 399.469C1313.54 399.469 1313.79 399.579 1313.97 399.776C1314.16 399.972 1314.26 400.238 1314.26 400.515V400.515Z" fill="#90FFFF"/>
<path fill-rule="evenodd" clip-rule="evenodd" d="M1286.87 310.171C1286.87 310.378 1286.81 310.58 1286.7 310.752C1286.6 310.924 1286.44 311.058 1286.26 311.137C1286.09 311.217 1285.89 311.237 1285.7 311.197C1285.51 311.157 1285.34 311.057 1285.2 310.911C1285.06 310.764 1284.97 310.578 1284.93 310.375C1284.89 310.172 1284.91 309.962 1284.99 309.771C1285.06 309.579 1285.19 309.416 1285.35 309.301C1285.51 309.186 1285.7 309.125 1285.89 309.125C1286.15 309.125 1286.4 309.235 1286.58 309.431C1286.76 309.627 1286.87 309.893 1286.87 310.171Z" fill="#68B7E7"/>
<path fill-rule="evenodd" clip-rule="evenodd" d="M1225.34 267.337C1225.34 267.544 1225.28 267.746 1225.18 267.918C1225.07 268.09 1224.92 268.224 1224.74 268.304C1224.56 268.383 1224.36 268.404 1224.17 268.363C1223.98 268.323 1223.81 268.223 1223.67 268.077C1223.54 267.93 1223.44 267.744 1223.41 267.541C1223.37 267.338 1223.39 267.128 1223.46 266.936C1223.53 266.745 1223.66 266.582 1223.82 266.467C1223.98 266.352 1224.17 266.291 1224.36 266.291C1224.62 266.291 1224.87 266.401 1225.06 266.597C1225.24 266.793 1225.34 267.059 1225.34 267.337V267.337Z" fill="#406FBB"/>
<path fill-rule="evenodd" clip-rule="evenodd" d="M1179.14 243.485C1179.14 243.692 1179.08 243.894 1178.97 244.066C1178.86 244.238 1178.71 244.372 1178.53 244.451C1178.35 244.531 1178.16 244.551 1177.97 244.511C1177.78 244.47 1177.6 244.371 1177.47 244.224C1177.33 244.078 1177.24 243.892 1177.2 243.689C1177.16 243.486 1177.18 243.275 1177.26 243.084C1177.33 242.893 1177.45 242.73 1177.62 242.615C1177.78 242.5 1177.96 242.438 1178.16 242.438C1178.29 242.438 1178.41 242.466 1178.53 242.518C1178.65 242.571 1178.76 242.648 1178.85 242.745C1178.94 242.842 1179.01 242.957 1179.06 243.084C1179.11 243.211 1179.14 243.347 1179.14 243.485V243.485Z" fill="#406FBB"/>
<path fill-rule="evenodd" clip-rule="evenodd" d="M1121.74 195.678C1121.74 195.885 1121.69 196.087 1121.58 196.259C1121.47 196.432 1121.32 196.566 1121.14 196.645C1120.96 196.724 1120.77 196.745 1120.58 196.705C1120.39 196.664 1120.21 196.565 1120.08 196.418C1119.94 196.272 1119.85 196.085 1119.81 195.882C1119.77 195.68 1119.79 195.469 1119.86 195.278C1119.94 195.087 1120.06 194.923 1120.22 194.808C1120.39 194.693 1120.57 194.632 1120.77 194.632C1121.03 194.632 1121.28 194.742 1121.46 194.938C1121.64 195.134 1121.74 195.401 1121.74 195.678V195.678Z" fill="#365CBB"/>
<path fill-rule="evenodd" clip-rule="evenodd" d="M1062.65 117.425C1062.65 117.563 1062.62 117.699 1062.57 117.826C1062.52 117.952 1062.45 118.068 1062.36 118.165C1062.27 118.262 1062.16 118.339 1062.04 118.392C1061.93 118.444 1061.8 118.472 1061.67 118.472C1061.54 118.472 1061.41 118.444 1061.3 118.392C1061.18 118.339 1061.07 118.262 1060.98 118.165C1060.89 118.068 1060.82 117.952 1060.77 117.826C1060.72 117.699 1060.69 117.563 1060.69 117.425C1060.69 117.148 1060.8 116.882 1060.98 116.685C1061.16 116.489 1061.41 116.379 1061.67 116.379C1061.93 116.379 1062.18 116.489 1062.36 116.685C1062.54 116.882 1062.65 117.148 1062.65 117.425Z" fill="#365CBB"/>
<path fill-rule="evenodd" clip-rule="evenodd" d="M1178.16 81.6446C1178.16 81.922 1178.06 82.1881 1177.87 82.3843C1177.69 82.5805 1177.44 82.6908 1177.18 82.6908C1176.92 82.6908 1176.67 82.5806 1176.49 82.3844C1176.31 82.1882 1176.2 81.9221 1176.2 81.6446C1176.2 81.3671 1176.31 81.1009 1176.49 80.9047C1176.67 80.7084 1176.92 80.5982 1177.18 80.5981C1177.44 80.5982 1177.69 80.7085 1177.87 80.9047C1178.06 81.1009 1178.16 81.3671 1178.16 81.6446V81.6446Z" fill="#365CBB"/>
<path fill-rule="evenodd" clip-rule="evenodd" d="M1079.1 353.405C1079.1 353.612 1079.04 353.814 1078.94 353.986C1078.83 354.158 1078.68 354.293 1078.5 354.372C1078.32 354.451 1078.12 354.472 1077.93 354.431C1077.74 354.391 1077.57 354.291 1077.43 354.145C1077.3 353.999 1077.2 353.812 1077.17 353.609C1077.13 353.406 1077.15 353.196 1077.22 353.005C1077.29 352.814 1077.42 352.65 1077.58 352.535C1077.74 352.42 1077.93 352.359 1078.12 352.359C1078.38 352.359 1078.63 352.469 1078.81 352.665C1079 352.862 1079.1 353.128 1079.1 353.405V353.405Z" fill="#365CBB"/>
<path fill-rule="evenodd" clip-rule="evenodd" d="M1240.27 266.29C1240.27 266.497 1240.21 266.699 1240.11 266.871C1240 267.043 1239.85 267.178 1239.67 267.257C1239.49 267.336 1239.29 267.357 1239.1 267.316C1238.91 267.276 1238.74 267.176 1238.6 267.03C1238.47 266.884 1238.37 266.697 1238.33 266.494C1238.3 266.291 1238.32 266.081 1238.39 265.89C1238.46 265.698 1238.59 265.535 1238.75 265.42C1238.91 265.305 1239.1 265.244 1239.29 265.244C1239.42 265.244 1239.55 265.271 1239.67 265.323C1239.79 265.376 1239.89 265.453 1239.98 265.55C1240.07 265.647 1240.15 265.763 1240.2 265.89C1240.24 266.017 1240.27 266.153 1240.27 266.29V266.29Z" fill="#365CBB"/>
<path fill-rule="evenodd" clip-rule="evenodd" d="M1248.36 72.9185C1248.36 73.0559 1248.33 73.1919 1248.28 73.3189C1248.24 73.4458 1248.16 73.5611 1248.07 73.6583C1247.98 73.7554 1247.87 73.8325 1247.76 73.8851C1247.64 73.9377 1247.51 73.9647 1247.38 73.9647C1247.12 73.9647 1246.87 73.8545 1246.69 73.6583C1246.51 73.4621 1246.4 73.196 1246.4 72.9185C1246.4 72.641 1246.51 72.3748 1246.69 72.1786C1246.87 71.9824 1247.12 71.8721 1247.38 71.8721C1247.64 71.8721 1247.89 71.9824 1248.07 72.1786C1248.26 72.3749 1248.36 72.641 1248.36 72.9185V72.9185Z" fill="#365CBB"/>
<path fill-rule="evenodd" clip-rule="evenodd" d="M1025.37 184.392C1025.37 184.599 1025.32 184.801 1025.21 184.973C1025.1 185.145 1024.95 185.279 1024.77 185.359C1024.59 185.438 1024.39 185.459 1024.2 185.418C1024.02 185.378 1023.84 185.278 1023.7 185.132C1023.57 184.986 1023.47 184.799 1023.44 184.596C1023.4 184.393 1023.42 184.183 1023.49 183.992C1023.57 183.8 1023.69 183.637 1023.85 183.522C1024.01 183.407 1024.2 183.346 1024.4 183.346C1024.65 183.346 1024.9 183.456 1025.09 183.652C1025.27 183.848 1025.37 184.114 1025.37 184.392V184.392Z" fill="#406FBB"/>
<path fill-rule="evenodd" clip-rule="evenodd" d="M1076.98 239.131C1076.98 239.338 1076.92 239.54 1076.82 239.712C1076.71 239.884 1076.56 240.018 1076.38 240.097C1076.2 240.176 1076 240.197 1075.81 240.157C1075.62 240.116 1075.45 240.017 1075.31 239.87C1075.18 239.724 1075.08 239.538 1075.04 239.335C1075.01 239.132 1075.03 238.921 1075.1 238.73C1075.17 238.539 1075.3 238.376 1075.46 238.261C1075.62 238.146 1075.81 238.084 1076 238.084C1076.26 238.085 1076.51 238.195 1076.69 238.391C1076.88 238.587 1076.98 238.853 1076.98 239.131V239.131Z" fill="#406FBB"/>
<path fill-rule="evenodd" clip-rule="evenodd" d="M1089.78 110.069C1089.78 110.346 1089.68 110.612 1089.49 110.809C1089.31 111.005 1089.06 111.115 1088.8 111.115C1088.54 111.115 1088.3 111.005 1088.11 110.809C1087.93 110.613 1087.83 110.346 1087.83 110.069C1087.83 109.791 1087.93 109.525 1088.11 109.329C1088.3 109.133 1088.54 109.022 1088.8 109.022C1088.93 109.022 1089.06 109.05 1089.18 109.102C1089.3 109.155 1089.4 109.232 1089.49 109.329C1089.59 109.426 1089.66 109.542 1089.71 109.668C1089.76 109.795 1089.78 109.931 1089.78 110.069V110.069Z" fill="#406FBB"/>
<path fill-rule="evenodd" clip-rule="evenodd" d="M1084.4 385.6C1084.4 385.807 1084.34 386.009 1084.24 386.181C1084.13 386.353 1083.98 386.487 1083.8 386.567C1083.62 386.646 1083.42 386.667 1083.23 386.626C1083.04 386.586 1082.87 386.486 1082.73 386.34C1082.6 386.193 1082.5 386.007 1082.47 385.804C1082.43 385.601 1082.45 385.391 1082.52 385.2C1082.6 385.008 1082.72 384.845 1082.88 384.73C1083.04 384.615 1083.23 384.554 1083.42 384.554C1083.68 384.554 1083.93 384.664 1084.12 384.86C1084.3 385.056 1084.4 385.323 1084.4 385.6V385.6Z" fill="#406FBB"/>
<path fill-rule="evenodd" clip-rule="evenodd" d="M968.672 232.523C968.672 232.73 968.615 232.932 968.508 233.104C968.4 233.276 968.248 233.41 968.069 233.489C967.891 233.569 967.694 233.589 967.505 233.549C967.315 233.509 967.141 233.409 967.004 233.263C966.867 233.116 966.774 232.93 966.737 232.727C966.699 232.524 966.718 232.314 966.792 232.123C966.866 231.931 966.991 231.768 967.152 231.653C967.313 231.538 967.502 231.477 967.695 231.477C967.823 231.477 967.95 231.504 968.069 231.556C968.188 231.609 968.295 231.686 968.386 231.783C968.477 231.88 968.549 231.995 968.598 232.122C968.647 232.249 968.672 232.385 968.672 232.523V232.523Z" fill="#406FBB"/>
<path fill-rule="evenodd" clip-rule="evenodd" d="M990.84 83.7347C990.84 84.0122 990.737 84.2783 990.554 84.4746C990.37 84.6708 990.122 84.7811 989.863 84.7812C989.603 84.7811 989.355 84.6709 989.171 84.4746C988.988 84.2784 988.885 84.0122 988.885 83.7347C988.885 83.5973 988.91 83.4612 988.959 83.3343C989.009 83.2073 989.081 83.092 989.171 82.9948C989.262 82.8977 989.37 82.8206 989.489 82.7681C989.607 82.7155 989.734 82.6885 989.863 82.6885C990.122 82.6885 990.37 82.7987 990.554 82.9949C990.737 83.1911 990.84 83.4572 990.84 83.7347Z" fill="#406FBB"/>
<path fill-rule="evenodd" clip-rule="evenodd" d="M1122.72 157.522C1122.72 157.729 1122.66 157.931 1122.56 158.103C1122.45 158.275 1122.3 158.409 1122.12 158.489C1121.94 158.568 1121.74 158.589 1121.55 158.548C1121.36 158.508 1121.19 158.408 1121.05 158.262C1120.92 158.115 1120.82 157.929 1120.79 157.726C1120.75 157.523 1120.77 157.313 1120.84 157.121C1120.91 156.93 1121.04 156.767 1121.2 156.652C1121.36 156.537 1121.55 156.476 1121.74 156.476C1122 156.476 1122.25 156.586 1122.43 156.782C1122.62 156.978 1122.72 157.244 1122.72 157.522Z" fill="#406FBB"/>
<path fill-rule="evenodd" clip-rule="evenodd" d="M1047.08 201.704C1047.08 201.911 1047.03 202.114 1046.92 202.286C1046.81 202.458 1046.66 202.592 1046.48 202.671C1046.3 202.75 1046.11 202.771 1045.92 202.731C1045.73 202.69 1045.55 202.591 1045.42 202.444C1045.28 202.298 1045.19 202.112 1045.15 201.909C1045.11 201.706 1045.13 201.495 1045.2 201.304C1045.28 201.113 1045.4 200.949 1045.56 200.834C1045.72 200.72 1045.91 200.658 1046.11 200.658C1046.37 200.658 1046.61 200.768 1046.8 200.965C1046.98 201.161 1047.08 201.427 1047.08 201.704Z" fill="#90FFFF"/>
<path fill-rule="evenodd" clip-rule="evenodd" d="M1128.53 82.6922C1128.53 82.9697 1128.43 83.2358 1128.24 83.432C1128.06 83.6282 1127.81 83.7384 1127.55 83.7384C1127.29 83.7384 1127.05 83.6282 1126.86 83.432C1126.68 83.2358 1126.58 82.9697 1126.58 82.6922C1126.58 82.4147 1126.68 82.1486 1126.86 81.9524C1127.05 81.7562 1127.29 81.646 1127.55 81.646C1127.81 81.646 1128.06 81.7562 1128.24 81.9524C1128.43 82.1486 1128.53 82.4147 1128.53 82.6922V82.6922Z" fill="#90FFFF"/>
<path fill-rule="evenodd" clip-rule="evenodd" d="M1196.92 366.29C1196.92 366.497 1196.86 366.7 1196.76 366.872C1196.65 367.044 1196.5 367.178 1196.32 367.257C1196.14 367.336 1195.94 367.357 1195.75 367.317C1195.56 367.276 1195.39 367.177 1195.25 367.03C1195.12 366.884 1195.02 366.698 1194.98 366.495C1194.95 366.292 1194.97 366.081 1195.04 365.89C1195.11 365.699 1195.24 365.536 1195.4 365.421C1195.56 365.306 1195.75 365.244 1195.94 365.244C1196.07 365.244 1196.2 365.271 1196.32 365.324C1196.44 365.376 1196.54 365.453 1196.63 365.551C1196.73 365.648 1196.8 365.763 1196.85 365.89C1196.9 366.017 1196.92 366.153 1196.92 366.29V366.29Z" fill="#B7FFFF"/>
<path fill-rule="evenodd" clip-rule="evenodd" d="M1143.32 369.723C1143.32 369.93 1143.26 370.133 1143.15 370.305C1143.05 370.477 1142.89 370.611 1142.72 370.69C1142.54 370.769 1142.34 370.79 1142.15 370.75C1141.96 370.709 1141.79 370.61 1141.65 370.463C1141.51 370.317 1141.42 370.131 1141.38 369.928C1141.35 369.725 1141.36 369.514 1141.44 369.323C1141.51 369.132 1141.64 368.969 1141.8 368.854C1141.96 368.739 1142.15 368.677 1142.34 368.677C1142.6 368.677 1142.85 368.787 1143.03 368.984C1143.22 369.18 1143.32 369.446 1143.32 369.723V369.723Z" fill="#90FFFF"/>
<path fill-rule="evenodd" clip-rule="evenodd" d="M1008.43 378.849C1008.43 379.056 1008.37 379.258 1008.27 379.43C1008.16 379.602 1008.01 379.736 1007.83 379.816C1007.65 379.895 1007.45 379.916 1007.26 379.875C1007.07 379.835 1006.9 379.735 1006.76 379.589C1006.63 379.443 1006.53 379.256 1006.5 379.053C1006.46 378.85 1006.48 378.64 1006.55 378.449C1006.62 378.258 1006.75 378.094 1006.91 377.979C1007.07 377.864 1007.26 377.803 1007.45 377.803C1007.58 377.803 1007.71 377.83 1007.83 377.882C1007.95 377.935 1008.05 378.012 1008.14 378.109C1008.24 378.206 1008.31 378.322 1008.36 378.449C1008.41 378.575 1008.43 378.712 1008.43 378.849Z" fill="#90FFFF"/>
<path fill-rule="evenodd" clip-rule="evenodd" d="M1274.41 141.687C1274.41 141.894 1274.35 142.096 1274.24 142.268C1274.14 142.44 1273.98 142.574 1273.81 142.654C1273.63 142.733 1273.43 142.754 1273.24 142.713C1273.05 142.673 1272.88 142.573 1272.74 142.427C1272.6 142.28 1272.51 142.094 1272.47 141.891C1272.44 141.688 1272.46 141.478 1272.53 141.286C1272.6 141.095 1272.73 140.932 1272.89 140.817C1273.05 140.702 1273.24 140.641 1273.43 140.641C1273.56 140.641 1273.69 140.668 1273.81 140.72C1273.92 140.773 1274.03 140.85 1274.12 140.947C1274.21 141.044 1274.29 141.159 1274.33 141.286C1274.38 141.413 1274.41 141.549 1274.41 141.687V141.687Z" fill="#90FFFF"/>
<path fill-rule="evenodd" clip-rule="evenodd" d="M1241.25 201.704C1241.25 201.911 1241.19 202.114 1241.08 202.286C1240.98 202.458 1240.82 202.592 1240.64 202.671C1240.47 202.75 1240.27 202.771 1240.08 202.731C1239.89 202.69 1239.72 202.591 1239.58 202.444C1239.44 202.298 1239.35 202.112 1239.31 201.909C1239.27 201.706 1239.29 201.495 1239.37 201.304C1239.44 201.113 1239.57 200.949 1239.73 200.834C1239.89 200.72 1240.08 200.658 1240.27 200.658C1240.53 200.658 1240.78 200.768 1240.96 200.965C1241.14 201.161 1241.25 201.427 1241.25 201.704V201.704Z" fill="#90FFFF"/>
<path fill-rule="evenodd" clip-rule="evenodd" d="M1143.43 209.418C1143.43 209.625 1143.37 209.827 1143.27 210C1143.16 210.172 1143.01 210.306 1142.83 210.385C1142.65 210.464 1142.45 210.485 1142.26 210.445C1142.07 210.404 1141.9 210.305 1141.76 210.158C1141.63 210.012 1141.53 209.826 1141.49 209.623C1141.46 209.42 1141.48 209.209 1141.55 209.018C1141.62 208.827 1141.75 208.663 1141.91 208.548C1142.07 208.433 1142.26 208.372 1142.45 208.372C1142.58 208.372 1142.71 208.399 1142.83 208.452C1142.95 208.504 1143.05 208.581 1143.14 208.678C1143.23 208.776 1143.31 208.891 1143.36 209.018C1143.41 209.145 1143.43 209.281 1143.43 209.418V209.418Z" fill="#90FFFF"/>
<path fill-rule="evenodd" clip-rule="evenodd" d="M1171.7 384.553C1171.7 384.76 1171.64 384.962 1171.54 385.134C1171.43 385.307 1171.28 385.441 1171.1 385.52C1170.92 385.599 1170.72 385.62 1170.53 385.579C1170.34 385.539 1170.17 385.439 1170.03 385.293C1169.9 385.147 1169.8 384.96 1169.77 384.757C1169.73 384.554 1169.75 384.344 1169.82 384.153C1169.9 383.962 1170.02 383.798 1170.18 383.683C1170.34 383.568 1170.53 383.507 1170.72 383.507C1170.85 383.507 1170.98 383.534 1171.1 383.586C1171.22 383.639 1171.32 383.716 1171.42 383.813C1171.51 383.91 1171.58 384.026 1171.63 384.153C1171.68 384.28 1171.7 384.416 1171.7 384.553V384.553Z" fill="#90FFFF"/>
<path fill-rule="evenodd" clip-rule="evenodd" d="M1416.75 379.542C1416.75 379.749 1416.7 379.951 1416.59 380.123C1416.48 380.295 1416.33 380.429 1416.15 380.509C1415.97 380.588 1415.77 380.609 1415.59 380.568C1415.4 380.528 1415.22 380.428 1415.08 380.282C1414.95 380.136 1414.85 379.949 1414.82 379.746C1414.78 379.543 1414.8 379.333 1414.87 379.141C1414.95 378.95 1415.07 378.787 1415.23 378.672C1415.39 378.557 1415.58 378.496 1415.78 378.496C1416.04 378.496 1416.28 378.606 1416.47 378.802C1416.65 378.998 1416.75 379.264 1416.75 379.542V379.542Z" fill="#90FFFF"/>
<path fill-rule="evenodd" clip-rule="evenodd" d="M1472.7 201.257C1472.7 201.464 1472.64 201.666 1472.54 201.838C1472.43 202.01 1472.28 202.144 1472.1 202.223C1471.92 202.302 1471.72 202.323 1471.53 202.283C1471.34 202.242 1471.17 202.143 1471.03 201.996C1470.9 201.85 1470.8 201.664 1470.76 201.461C1470.73 201.258 1470.75 201.047 1470.82 200.856C1470.89 200.665 1471.02 200.502 1471.18 200.387C1471.34 200.272 1471.53 200.21 1471.72 200.21C1471.98 200.21 1472.23 200.321 1472.41 200.517C1472.6 200.713 1472.7 200.979 1472.7 201.257V201.257Z" fill="#406FBB"/>
<path fill-rule="evenodd" clip-rule="evenodd" d="M1044.83 95.1697C1044.83 95.3071 1044.81 95.4432 1044.76 95.5702C1044.71 95.6971 1044.64 95.8124 1044.55 95.9096C1044.46 96.0067 1044.35 96.0838 1044.23 96.1364C1044.11 96.1889 1043.99 96.216 1043.86 96.2159C1043.6 96.2159 1043.35 96.1057 1043.17 95.9095C1042.98 95.7133 1042.88 95.4472 1042.88 95.1697C1042.88 94.8923 1042.98 94.6262 1043.17 94.43C1043.35 94.2338 1043.6 94.1235 1043.86 94.1235C1043.99 94.1235 1044.11 94.1506 1044.23 94.2031C1044.35 94.2557 1044.46 94.3327 1044.55 94.4299C1044.64 94.527 1044.71 94.6424 1044.76 94.7693C1044.81 94.8963 1044.83 95.0323 1044.83 95.1697Z" fill="#406FBB"/>
<path fill-rule="evenodd" clip-rule="evenodd" d="M1403.81 276.748C1403.81 276.955 1403.76 277.157 1403.65 277.329C1403.54 277.501 1403.39 277.635 1403.21 277.715C1403.03 277.794 1402.84 277.815 1402.65 277.774C1402.46 277.734 1402.28 277.634 1402.15 277.488C1402.01 277.342 1401.92 277.155 1401.88 276.952C1401.84 276.749 1401.86 276.539 1401.93 276.348C1402.01 276.156 1402.13 275.993 1402.29 275.878C1402.45 275.763 1402.64 275.702 1402.84 275.702C1403.1 275.702 1403.34 275.812 1403.53 276.008C1403.71 276.204 1403.81 276.47 1403.81 276.748V276.748Z" fill="#406FBB"/>
<defs>
<filter id="filter0_f_2003_232" x="-198" y="-210" width="1475" height="1114" filterUnits="userSpaceOnUse" color-interpolation-filters="sRGB">
<feFlood flood-opacity="0" result="BackgroundImageFix"/>
<feBlend mode="normal" in="SourceGraphic" in2="BackgroundImageFix" result="shape"/>
<feGaussianBlur stdDeviation="200" result="effect1_foregroundBlur_2003_232"/>
</filter>
<filter id="filter1_f_2003_232" x="177" y="-210" width="1475" height="1114" filterUnits="userSpaceOnUse" color-interpolation-filters="sRGB">
<feFlood flood-opacity="0" result="BackgroundImageFix"/>
<feBlend mode="normal" in="SourceGraphic" in2="BackgroundImageFix" result="shape"/>
<feGaussianBlur stdDeviation="200" result="effect1_foregroundBlur_2003_232"/>
</filter>
<filter id="filter2_f_2003_232" x="619.248" y="-386" width="1285.24" height="1327.08" filterUnits="userSpaceOnUse" color-interpolation-filters="sRGB">
<feFlood flood-opacity="0" result="BackgroundImageFix"/>
<feBlend mode="normal" in="SourceGraphic" in2="BackgroundImageFix" result="shape"/>
<feGaussianBlur stdDeviation="200" result="effect1_foregroundBlur_2003_232"/>
</filter>
<linearGradient id="paint0_linear_2003_232" x1="752.5" y1="-52" x2="752.032" y2="792.502" gradientUnits="userSpaceOnUse">
<stop stop-color="white" stop-opacity="0"/>
<stop offset="0.851347" stop-color="#302444" stop-opacity="0.43"/>
<stop offset="1" stop-color="#1B112D"/>
</linearGradient>
</defs>
</svg>
